<svg width="291" height="68" viewBox="0 0 291 68" fill="none" xmlns="http://www.w3.org/2000/svg">
<ellipse cx="31.0737" cy="21.6826" rx="22.0421" ry="21.3537" fill="#FEDCB5"/>
<path d="M27 4C28.53 4 54 62.2793 54 62.2793C53.2597 64.5079 51.0203 64.9435 47.2268 64.2458C43.4133 63.5445 38.0245 61.7086 29.134 63.4413C13.0825 66.5698 0 62.2793 0 62.2793C0 62.2793 25.47 4 27 4Z" fill="url(#paint0_linear_66_1219)"/>
<mask id="mask0_66_1219" style="mask-type:alpha" maskUnits="userSpaceOnUse" x="0" y="4" width="54" height="61">
<path d="M27 4C28.53 4 54 62.2793 54 62.2793C53.2597 64.5079 51.0203 64.9435 47.2268 64.2458C43.4133 63.5445 38.0245 61.7086 29.134 63.4413C13.0825 66.5698 0 62.2793 0 62.2793C0 62.2793 25.47 4 27 4Z" fill="url(#paint1_linear_66_1219)"/>
</mask>
<g mask="url(#mask0_66_1219)">
<path d="M41.6598 61.4749L28.7231 36.1788C28.7231 36.1788 22.732 52.3367 14.1959 57.6313C7.42268 61.8324 0 62.2793 0 62.2793C0 62.2793 7.8866 65.5866 15.4021 64.8715C22.9175 64.1564 34.5155 61.8324 34.5155 61.8324L41.6598 61.4749Z" fill="#0D91CC"/>
<mask id="mask1_66_1219" style="mask-type:alpha" maskUnits="userSpaceOnUse" x="0" y="36" width="42" height="29">
<path d="M41.6598 61.4749L28.7231 36.1788C28.7231 36.1788 22.732 52.3367 14.1959 57.6313C7.42268 61.8324 0 62.2793 0 62.2793C0 62.2793 7.8866 65.5866 15.4021 64.8715C22.9175 64.1564 34.5155 61.8324 34.5155 61.8324L41.6598 61.4749Z" fill="#0D91CC"/>
</mask>
<g mask="url(#mask1_66_1219)">
<path d="M10.1134 35.6425H28.5559L29.969 42.7039L28.5559 50.3911L31.4536 55.3073L16.7938 66.5698L-1.85571 62.6369L10.1134 35.6425Z" fill="#EEEEEE" fill-opacity="0.5"/>
</g>
</g>
<path d="M32.7526 54.2346L50.3498 64.5586H15.1553L32.7526 54.2346Z" fill="#08577B"/>
<mask id="mask2_66_1219" style="mask-type:alpha" maskUnits="userSpaceOnUse" x="15" y="54" width="36" height="11">
<path d="M32.7526 54.2346L50.3498 64.5586H15.1553L32.7526 54.2346Z" fill="#08577B"/>
</mask>
<g mask="url(#mask2_66_1219)">
<path d="M-6.86597 49.4078L32.8454 53.6983L31.8248 57.8994L34.4227 63.6201L35.4433 74.6145H-6.86597V49.4078Z" fill="#D2D2D2" fill-opacity="0.5"/>
</g>
<mask id="mask3_66_1219" style="mask-type:alpha" maskUnits="userSpaceOnUse" x="0" y="4" width="54" height="61">
<path d="M27 4C28.53 4 54 62.2793 54 62.2793C53.2597 64.5079 51.0203 64.9435 47.2268 64.2458C43.4133 63.5445 38.0245 61.7086 29.134 63.4413C13.0825 66.5698 0 62.2793 0 62.2793C0 62.2793 25.47 4 27 4Z" fill="url(#paint2_linear_66_1219)"/>
</mask>
<g mask="url(#mask3_66_1219)">
<ellipse cx="11.1367" cy="21.5543" rx="11.1367" ry="21.5543" transform="matrix(0.906757 0.421654 -0.447958 0.894055 13.3727 -5.29608)" fill="#F3F2F2" fill-opacity="0.5"/>
</g>
<g filter="url(#filter0_d_66_1219)">
<path d="M13.1717 25.7963C15.1102 25.6959 25.8868 27.5635 25.8868 27.5635C25.8868 27.5635 26.2259 26.4601 26.8874 26.2783C28.047 25.9595 31.223 26.7803 31.223 26.7803C31.223 26.7803 37.772 24.514 42.1455 22.9247C46.8981 21.1978 52.6094 19.7519 52.6094 19.7519L52.6928 19.7318L52.7762 19.7519L53.0472 19.8724L42.8334 24.2501C42.8334 24.2501 43.3962 24.3306 43.3753 24.5714C43.3674 24.6634 43.2239 24.7281 43.1044 24.7521C42.6041 24.8525 42.0621 24.5714 42.0621 24.5714C42.0621 24.5714 38.9772 25.9369 36.7676 26.9008C35.8935 27.2821 34.5581 28.2663 34.5581 28.2663L35.4336 28.5474L35.1001 28.7683L33.9745 28.6679L33.7452 28.8487L36.3716 29.3306L38.4769 25.9168L39.7067 25.4148V30.5355L46.4395 28.427H46.9397L40.9157 31.0576C40.9157 31.0576 41.5989 31.2182 41.5827 31.4994C41.5653 31.8006 38.3457 32.8342 36.2465 32.9251C34.3914 33.0054 30.7227 32.9251 30.7227 32.9251H25.6992L25.199 33.0657C25.199 33.0657 25.5929 33.089 25.8451 33.1862C25.9494 33.2263 26.1722 33.3248 26.0953 33.3669C25.324 33.7886 24.386 33.3669 24.386 33.3669C24.386 33.3669 24.1354 33.4854 23.9483 33.6079C23.7233 33.7552 23.3438 34.0697 23.3438 34.0697C23.3438 34.0697 23.7064 34.0152 23.8858 34.0898C23.977 34.1278 24.1401 34.1701 24.115 34.2103C23.9274 34.5115 22.9478 34.4111 22.9478 34.4111L22.5934 34.6923C22.5934 34.6923 23.1562 34.6923 23.177 34.8529C23.1822 34.8928 23.0311 34.9694 22.9686 34.9935C22.673 35.1075 22.114 35.0537 22.114 35.0537L20.7591 36.0578L19.8211 35.9172L19.8419 35.3348C19.8419 35.3348 18.8378 35.5526 17.9451 35.4754C16.3192 35.3348 15.5271 35.2545 15.5271 33.8689C15.5271 32.12 17.4865 32.4633 17.4865 32.4633L20.4464 32.7042L20.5923 32.162L19.2791 31.5998C19.2791 31.5998 8.71098 31.0174 7.79382 28.6278C7.79383 28.447 8.46082 27.4831 9.81571 26.8205C11.1706 26.1578 11.8793 25.9771 13.1717 25.7963Z" fill="#0F92CD"/>
<path d="M16.9446 33.8689C16.9156 34.4339 16.6513 34.9029 16.4443 34.8931C16.2984 34.8861 15.9858 34.4312 16.0483 33.8288C16.0773 33.2639 16.4222 32.7976 16.5694 32.8046C16.7764 32.8145 16.9736 33.304 16.9446 33.8689Z" fill="#08577B"/>
<path d="M27.7628 27.8647C27.7338 28.4296 27.3876 28.9089 26.929 29.0294C26.6997 29.0294 26.1995 28.6478 26.3871 27.7442C26.5538 26.7602 27.1792 26.5223 27.3042 26.5594C27.5752 26.6397 27.8462 27.1618 27.7628 27.8647Z" fill="#08577B"/>
<mask id="mask4_66_1219" style="mask-type:alpha" maskUnits="userSpaceOnUse" x="7" y="19" width="47" height="18">
<path d="M13.1717 25.7963C15.1102 25.6959 25.8868 27.5635 25.8868 27.5635C25.8868 27.5635 26.2259 26.4601 26.8874 26.2783C28.047 25.9595 31.223 26.7803 31.223 26.7803C31.223 26.7803 37.772 24.514 42.1455 22.9247C46.8981 21.1978 52.6094 19.7519 52.6094 19.7519L52.6928 19.7318L52.7762 19.7519L53.0472 19.8724L42.8334 24.2501C42.8334 24.2501 43.3962 24.3306 43.3753 24.5714C43.3674 24.6634 43.2239 24.7281 43.1044 24.7521C42.6041 24.8525 42.0621 24.5714 42.0621 24.5714C42.0621 24.5714 38.9772 25.9369 36.7676 26.9008C35.8935 27.2821 34.5581 28.2663 34.5581 28.2663L35.4336 28.5474L35.1001 28.7683L33.9745 28.6679L33.7452 28.8487L36.3716 29.3306L38.4769 25.9168L39.7067 25.4148V30.5355L46.4395 28.427H46.9397L40.9157 31.0576C40.9157 31.0576 41.5989 31.2182 41.5827 31.4994C41.5653 31.8006 38.3457 32.8342 36.2465 32.9251C34.3914 33.0054 30.7227 32.9251 30.7227 32.9251H25.6992L25.199 33.0657C25.199 33.0657 25.5929 33.089 25.8451 33.1862C25.9494 33.2263 26.1722 33.3248 26.0953 33.3669C25.324 33.7886 24.386 33.3669 24.386 33.3669C24.386 33.3669 24.1354 33.4854 23.9483 33.6079C23.7233 33.7552 23.3438 34.0697 23.3438 34.0697C23.3438 34.0697 23.7064 34.0152 23.8858 34.0898C23.977 34.1278 24.1401 34.1701 24.115 34.2103C23.9274 34.5115 22.9478 34.4111 22.9478 34.4111L22.5934 34.6923C22.5934 34.6923 23.1562 34.6923 23.177 34.8529C23.1822 34.8928 23.0311 34.9694 22.9686 34.9935C22.673 35.1075 22.114 35.0537 22.114 35.0537L20.7591 36.0578L19.8211 35.9172L19.8419 35.3348C19.8419 35.3348 18.8378 35.5526 17.9451 35.4754C16.3192 35.3348 15.5271 35.2545 15.5271 33.8689C15.5271 32.12 17.4865 32.4633 17.4865 32.4633L20.4464 32.7042L20.5923 32.162L19.2791 31.5998C19.2791 31.5998 8.71098 31.0174 7.79382 28.6278C7.79383 28.447 8.46082 27.4831 9.81571 26.8205C11.1706 26.1578 11.8793 25.9771 13.1717 25.7963Z" fill="#0F92CD"/>
<path d="M16.9446 33.8689C16.9156 34.4339 16.6513 34.9029 16.4443 34.8931C16.2984 34.8861 15.9858 34.4312 16.0483 33.8288C16.0773 33.2639 16.4222 32.7976 16.5694 32.8046C16.7764 32.8145 16.9736 33.304 16.9446 33.8689Z" fill="#08577B"/>
<path d="M27.7628 27.8647C27.7338 28.4296 27.3876 28.9089 26.929 29.0294C26.6997 29.0294 26.1995 28.6478 26.3871 27.7442C26.5538 26.7602 27.1792 26.5223 27.3042 26.5594C27.5752 26.6397 27.8462 27.1618 27.7628 27.8647Z" fill="#08577B"/>
</mask>
<g mask="url(#mask4_66_1219)">
<path d="M4.67773 24.0983H12.6095L26.5608 26.2133C26.5608 26.2133 25.9234 27.1002 25.8526 27.7142C25.7818 28.3282 25.9234 28.8058 25.9234 28.8058C25.9234 28.8058 17.3543 27.2366 13.8134 27.4413C10.2724 27.646 7.43968 28.7376 7.43968 28.7376L4.67773 24.0983Z" fill="white" fill-opacity="0.5"/>
<path d="M28.6146 22.3244L49.5062 17.958L53.118 19.7318C53.118 19.7318 43.9115 22.6655 41.5745 23.6207C39.2375 24.5758 31.9431 27.3731 31.9431 27.3731C31.9431 27.3731 31.8723 26.9637 30.9517 26.6908C30.031 26.4179 29.7477 25.7357 29.7477 25.7357L28.6146 22.3244Z" fill="white" fill-opacity="0.5"/>
<path d="M13.7427 31.8759L19.4082 32.0124L20.3997 32.6947C20.3997 32.6947 18.6292 33.0358 16.5754 32.6947C16.4194 32.6687 15.7256 33.0929 15.7256 33.9227C15.7256 34.7525 16.0089 35.0825 16.0089 35.0825L13.7427 36.1059V31.8759Z" fill="white" fill-opacity="0.5"/>
<path d="M36.9005 26.9637L38.6001 26.0768L37.5378 29.6245L36.1923 29.2834L36.9005 26.9637Z" fill="white" fill-opacity="0.5"/>
</g>
</g>
<path d="M69.6618 50.0946C68.5272 50.0946 67.5938 49.764 66.8617 49.1029C66.1663 48.4418 65.8918 47.4501 66.0382 46.1279C66.0748 45.6504 66.1846 45.1545 66.3676 44.6403C66.5872 44.0894 66.8251 43.5568 67.0814 43.0426C67.301 42.5284 67.5206 42.2713 67.7402 42.2713C67.9232 42.2713 67.9415 42.4182 67.7951 42.7121C67.3193 43.7037 67.0814 44.5852 67.0814 45.3565C67.0814 46.1646 67.3559 46.7706 67.9049 47.1746C68.4905 47.5787 69.2409 47.7807 70.156 47.7807C71.9495 47.7807 73.926 47.2114 76.0855 46.0728C78.2451 44.8974 80.4778 43.4099 82.7838 41.6102C85.0897 39.7737 87.3041 37.8638 89.4271 35.8805C87.9996 35.807 86.6636 35.7335 85.4191 35.6601C84.1746 35.5866 83.0766 35.5499 82.1249 35.5499C81.3197 35.5499 80.3497 35.6234 79.215 35.7703C78.0804 35.9172 77.2019 36.3028 76.5797 36.9272C76.3234 37.1843 76.0855 37.57 75.8659 38.0842C75.6829 38.5617 75.5914 39.0575 75.5914 39.5717C75.5914 39.7186 75.5914 39.8656 75.5914 40.0125C75.628 40.1227 75.6646 40.2512 75.7012 40.3981C75.5548 40.3247 75.2803 40.2696 74.8777 40.2328C74.5116 40.1594 74.2737 39.9207 74.1639 39.5166C74.1273 39.4064 74.109 39.2228 74.109 38.9657C74.109 38.378 74.3286 37.9006 74.7678 37.5333C75.2071 37.1292 75.7378 36.7803 76.36 36.4865C76.9823 36.1927 77.5496 35.9356 78.0621 35.7152C79.2699 35.201 80.5144 34.7786 81.7955 34.448C83.0766 34.1175 84.376 33.9522 85.6936 33.9522C87.1943 33.9522 89.061 34.0073 91.2938 34.1175C93.0141 32.4279 94.6063 30.8302 96.0704 29.3243C97.5345 27.8184 98.7241 26.5696 99.6391 25.578C100.92 24.219 102.274 23.062 103.702 22.1071C105.166 21.1154 106.648 20.4175 108.149 20.0135H105.129C103.848 20.0135 102.457 20.0686 100.957 20.1788C99.4561 20.289 98.0469 20.5277 96.7292 20.895C95.4115 21.2623 94.3135 21.8132 93.435 22.5478C92.886 23.0253 92.4651 23.5762 92.1722 24.2006C91.916 24.7883 91.7879 25.3392 91.7879 25.8534C91.7879 26.5513 91.9892 27.0288 92.3919 27.2859C92.4285 27.2859 92.4468 27.3042 92.4468 27.341C92.4468 27.4511 92.3187 27.5797 92.0624 27.7266C91.8062 27.8368 91.6232 27.8552 91.5134 27.7817C91.1474 27.5246 90.818 27.0104 90.5251 26.2391C90.2689 25.431 90.1774 24.7883 90.2506 24.3108C90.4336 23.1722 90.9278 22.254 91.733 21.5561C92.5749 20.8216 93.5997 20.2523 94.8076 19.8482C96.0521 19.4442 97.3515 19.1687 98.7058 19.0218C100.097 18.8749 101.414 18.7831 102.659 18.7464C103.94 18.7096 105.02 18.6913 105.898 18.6913H111.883C111.956 18.6913 111.974 18.7096 111.937 18.7464C112.853 18.3423 113.804 17.9383 114.792 17.5343C115.817 17.1303 116.696 16.9283 117.428 16.9283C117.611 16.9283 117.794 16.9834 117.977 17.0936C118.196 17.2037 118.306 17.3139 118.306 17.4241C118.306 17.6078 117.94 17.6996 117.208 17.6996C116.842 17.6996 116.458 17.773 116.055 17.92C115.689 18.0301 115.195 18.4158 114.573 19.0769C114.06 19.5911 113.42 20.4175 112.651 21.5561C111.883 22.6947 111.041 24.0353 110.126 25.578C109.211 27.0839 108.296 28.6999 107.381 30.4262C106.465 32.1157 105.587 33.7869 104.745 35.4397C103.903 37.0925 103.171 38.6168 102.549 40.0125C102.476 40.2328 102.274 40.7471 101.945 41.5551C101.616 42.3264 101.305 43.1895 101.012 44.1445C100.719 45.0627 100.572 45.8891 100.572 46.6237C100.572 47.6154 100.92 48.1112 101.616 48.1112C101.945 48.1112 102.274 48.0378 102.604 47.8909C103.08 47.7072 103.574 47.4317 104.086 47.0644C104.599 46.6972 105.093 46.2748 105.569 45.7973C106.52 44.8791 107.326 43.9976 107.984 43.1528C108.643 42.2713 109.046 41.7387 109.192 41.5551C109.302 41.3714 109.43 41.2796 109.577 41.2796C109.723 41.2796 109.796 41.3714 109.796 41.5551C109.796 41.6653 109.741 41.8122 109.632 41.9958C109.375 42.3631 108.899 43.0059 108.204 43.9241C107.509 44.8056 106.685 45.7055 105.733 46.6237C104.818 47.5419 103.83 48.2398 102.769 48.7173C102.439 48.8642 102.091 48.9744 101.725 49.0478C101.359 49.158 100.993 49.2131 100.627 49.2131C99.8953 49.2131 99.2182 48.956 98.596 48.4418C98.0103 47.9276 97.7175 47.0828 97.7175 45.9075C97.7175 44.8423 97.9188 43.7037 98.3214 42.4917C98.7607 41.2429 99.1633 40.2328 99.5293 39.4615C100.261 37.8822 101.122 36.1192 102.11 34.1726C103.135 32.2259 104.178 30.2793 105.239 28.3326C106.337 26.386 107.344 24.623 108.259 23.0437C109.174 21.4643 109.924 20.289 110.51 19.5177C109.924 19.5177 109.137 19.7564 108.149 20.2339C107.161 20.6746 106.099 21.2807 104.965 22.052C103.867 22.7866 102.842 23.6497 101.89 24.6414C100.755 25.8167 99.4378 27.2491 97.9371 28.9387C96.473 30.6282 94.8808 32.3912 93.1605 34.2277C94.0024 34.2644 94.8442 34.3011 95.6861 34.3378C96.5279 34.3378 97.3698 34.3378 98.2116 34.3378C98.7973 34.3378 99.4378 34.2827 100.133 34.1726C100.865 34.0256 101.542 33.8053 102.165 33.5114C102.165 33.5114 102.055 33.7134 101.835 34.1175C101.652 34.4848 101.323 34.8704 100.847 35.2744C100.408 35.6417 99.8038 35.8621 99.0352 35.9356C98.3397 35.9723 97.6443 36.009 96.9488 36.0457C96.2534 36.0457 95.558 36.0457 94.8625 36.0457C94.2769 36.0457 93.6912 36.0457 93.1056 36.0457C92.5566 36.0457 92.0075 36.0274 91.4585 35.9906C89.7748 37.7536 88.0179 39.4799 86.1878 41.1694C84.3577 42.8222 82.5092 44.3281 80.6425 45.6871C78.7758 47.0461 76.9091 48.1112 75.0424 48.8825C73.2122 49.6906 71.4187 50.0946 69.6618 50.0946Z" fill="#0C445E"/>
<path d="M112.189 49.5988C111.53 49.5988 110.835 49.5069 110.103 49.3233C109.37 49.1396 108.712 48.8458 108.126 48.4418C107.577 48.001 107.211 47.4134 107.028 46.6788C106.991 46.5686 106.973 46.4033 106.973 46.183C106.973 45.6687 107.083 45.0994 107.302 44.4751C107.559 43.8507 107.87 43.4099 108.236 43.1528C108.382 43.0793 108.492 43.0793 108.565 43.1528C108.675 43.2263 108.693 43.2997 108.62 43.3732C108.584 43.4834 108.529 43.6303 108.455 43.8139C108.382 43.9608 108.327 44.1261 108.291 44.3098C108.181 45.2647 108.382 46.1095 108.895 46.8441C109.114 47.1379 109.37 47.4134 109.663 47.6705C109.993 47.9276 110.304 48.148 110.597 48.3316C110.853 48.4785 111.164 48.5887 111.53 48.6622C111.896 48.6989 112.262 48.7173 112.628 48.7173C113.214 48.7173 113.781 48.6438 114.33 48.4969C114.879 48.35 115.282 48.1112 115.538 47.7807C116.014 47.193 116.252 46.5319 116.252 45.7973C116.252 45.2464 116.105 44.6587 115.812 44.0343C115.52 43.4099 115.062 42.7488 114.44 42.0509C114.037 41.6102 113.653 41.1327 113.287 40.6185C112.921 40.1043 112.683 39.5534 112.573 38.9657C112.537 38.8555 112.5 38.7453 112.463 38.6351C112.463 38.5249 112.463 38.4148 112.463 38.3046C111.988 39.0024 111.493 39.6635 110.981 40.2879C110.505 40.8756 110.084 41.3898 109.718 41.8306C109.572 42.0509 109.444 42.1611 109.334 42.1611C109.261 42.1611 109.224 42.0877 109.224 41.9407C109.224 41.6102 109.37 41.2613 109.663 40.894C109.956 40.5634 110.286 40.1594 110.652 39.6819C111.018 39.1677 111.31 38.7637 111.53 38.4699C112.152 37.5516 112.61 36.8354 112.903 36.3212C113.232 35.7703 113.58 35.2744 113.946 34.8337C114.348 34.3562 114.843 33.9705 115.428 33.6767C116.05 33.3829 116.691 33.236 117.35 33.236C118.118 33.236 118.814 33.3645 119.436 33.6216C120.095 33.842 120.443 34.4297 120.479 35.3846C120.479 35.8254 120.388 36.2845 120.205 36.762C120.058 37.2027 119.894 37.6251 119.711 38.0291C119.601 38.2495 119.436 38.4148 119.216 38.5249C119.033 38.5984 118.942 38.5617 118.942 38.4148C118.942 38.2678 118.96 38.1026 118.997 37.9189C119.033 37.7353 119.052 37.57 119.052 37.4231C119.052 36.7987 118.942 36.2477 118.722 35.7703C118.539 35.2561 118.265 34.8888 117.899 34.6684C117.533 34.4113 117.148 34.2827 116.746 34.2827C116.16 34.2827 115.593 34.5215 115.044 34.999C114.495 35.4397 114.22 36.0274 114.22 36.762C114.22 36.8354 114.22 36.9272 114.22 37.0374C114.22 37.1476 114.239 37.2394 114.275 37.3129C114.422 37.9006 114.861 38.5617 115.593 39.2963C116.325 40.0308 116.892 40.6736 117.295 41.2245C117.99 42.1795 118.338 43.1528 118.338 44.1445C118.338 45.1362 118.045 46.0544 117.46 46.8992C116.911 47.7072 116.16 48.35 115.209 48.8274C114.293 49.3416 113.287 49.5988 112.189 49.5988Z" fill="#0C445E"/>
<path d="M123.961 49.158C122.607 49.158 121.655 48.9009 121.106 48.3867C120.557 47.8725 120.283 47.2114 120.283 46.4033C120.283 45.3382 120.631 44.1629 121.326 42.8773C122.021 41.5551 122.68 40.4532 123.303 39.5717C123.925 38.727 124.62 37.9373 125.389 37.2027C126.194 36.4314 127.054 35.7703 127.969 35.2193C128.555 34.852 129.342 34.4664 130.33 34.0624C131.355 33.6216 132.215 33.4012 132.911 33.4012C133.752 33.4012 134.338 33.6033 134.668 34.0073C134.997 34.3746 135.162 34.8337 135.162 35.3846C135.162 35.8254 135.088 36.2845 134.942 36.762C134.796 37.2027 134.631 37.6251 134.448 38.0291C134.338 38.2495 134.173 38.4148 133.954 38.5249C133.734 38.5984 133.624 38.5617 133.624 38.4148C133.624 38.2311 133.643 38.0658 133.679 37.9189C133.716 37.772 133.734 37.6067 133.734 37.4231C133.734 36.7252 133.569 36.0457 133.24 35.3846C132.947 34.6868 132.49 34.3378 131.867 34.3378C131.209 34.3378 130.495 34.5766 129.726 35.0541C128.958 35.4948 128.427 35.8805 128.134 36.211C127.182 37.2027 126.249 38.4331 125.334 39.9023C124.455 41.3714 123.815 42.7672 123.412 44.0894C123.156 44.8607 123.028 45.5218 123.028 46.0728C123.028 46.6972 123.193 47.1379 123.522 47.395C123.852 47.6521 124.254 47.7807 124.73 47.7807C125.096 47.7807 125.48 47.7256 125.883 47.6154C126.322 47.5052 126.78 47.3766 127.256 47.2297C128.354 46.8624 129.452 46.2931 130.55 45.5218C131.684 44.7138 132.709 43.869 133.624 42.9875C134.539 42.0693 135.235 41.2796 135.711 40.6185C135.784 40.692 135.821 40.8021 135.821 40.9491C135.821 41.1327 135.747 41.3531 135.601 41.6102C135.454 41.8306 135.345 42.0142 135.271 42.1611C134.503 43.1895 133.496 44.2547 132.252 45.3565C131.007 46.4217 129.653 47.3216 128.189 48.0561C126.761 48.7907 125.352 49.158 123.961 49.158Z" fill="#0C445E"/>
<path d="M137.867 49.158C136.367 49.158 135.324 48.8642 134.738 48.2765C134.152 47.6888 133.859 46.9726 133.859 46.1279C133.859 45.0627 134.134 43.9241 134.683 42.7121C135.269 41.5 135.818 40.4716 136.33 39.6268C136.916 38.7453 137.703 37.8271 138.691 36.8721C139.679 35.9172 140.759 35.1091 141.93 34.448C143.101 33.7869 144.236 33.4563 145.334 33.4563C146.286 33.4563 146.945 33.6951 147.311 34.1726C147.677 34.6133 147.86 35.1459 147.86 35.7703C147.86 36.9089 147.512 37.8455 146.817 38.58C146.158 39.3146 145.334 39.9207 144.346 40.3981C143.358 40.8389 142.406 41.2062 141.491 41.5C140.942 41.6469 140.301 41.7938 139.569 41.9407C138.837 42.0877 138.142 42.1611 137.483 42.1611C137.227 42.8222 137.026 43.465 136.879 44.0894C136.733 44.7138 136.659 45.2831 136.659 45.7973C136.659 46.4217 136.806 46.9359 137.099 47.3399C137.428 47.7439 137.959 47.9459 138.691 47.9459C138.984 47.9459 139.331 47.9092 139.734 47.8358C140.137 47.7623 140.576 47.6521 141.052 47.5052C142.15 47.1379 143.23 46.5502 144.291 45.7422C145.353 44.9342 146.323 44.071 147.201 43.1528C148.116 42.1979 148.811 41.4082 149.287 40.7838C149.397 40.894 149.452 41.0225 149.452 41.1694C149.452 41.3531 149.324 41.6469 149.068 42.0509C148.336 43.0793 147.384 44.1445 146.213 45.2464C145.041 46.3482 143.742 47.2848 142.315 48.0561C140.887 48.7907 139.405 49.158 137.867 49.158ZM137.922 41.0593C138.398 41.096 138.929 41.096 139.514 41.0593C140.137 40.9858 140.741 40.8572 141.326 40.6736C142.827 40.2328 143.907 39.535 144.566 38.58C145.261 37.5884 145.609 36.7069 145.609 35.9356C145.609 35.4948 145.517 35.1275 145.334 34.8337C145.151 34.5398 144.858 34.3929 144.456 34.3929C143.394 34.3929 142.443 34.797 141.601 35.605C140.759 36.3763 140.027 37.2762 139.405 38.3046C138.782 39.333 138.288 40.2512 137.922 41.0593Z" fill="#0C445E"/>
<path d="M148.74 49.5437C148.593 49.5437 148.593 49.3784 148.74 49.0478C148.923 48.7173 149.087 48.35 149.234 47.9459C149.417 47.5419 149.6 47.1012 149.783 46.6237C150.149 45.7422 150.551 44.7505 150.991 43.6487C151.43 42.5468 151.851 41.4816 152.253 40.4532C152.656 39.3881 153.004 38.4882 153.297 37.7536C153.626 36.9823 153.846 36.4865 153.955 36.2661C153.443 36.817 152.821 37.5149 152.089 38.3597C151.393 39.1677 150.734 39.9574 150.112 40.7287C149.49 41.5 149.014 42.106 148.685 42.5468C148.575 42.6937 148.483 42.7672 148.41 42.7672C148.337 42.7672 148.3 42.6753 148.3 42.4917C148.3 42.1979 148.392 41.9224 148.575 41.6653C149.27 40.7838 150.039 39.7921 150.881 38.6902C151.759 37.5884 152.546 36.5783 153.242 35.6601C153.937 34.7051 154.376 34.0807 154.559 33.7869C154.962 33.7134 155.548 33.6033 156.316 33.4563C157.121 33.3094 157.671 33.1074 157.963 32.8503C158.073 32.7401 158.183 32.685 158.293 32.685C158.366 32.685 158.403 32.7585 158.403 32.9054C158.439 33.0156 158.403 33.1441 158.293 33.2911C158.073 33.5482 157.689 34.1542 157.14 35.1091C156.627 36.0274 156.06 37.0558 155.438 38.1944C154.852 39.333 154.303 40.3614 153.791 41.2796C154.23 40.692 154.706 40.1227 155.218 39.5717C155.731 39.0208 156.225 38.4882 156.701 37.974C157.14 37.5333 157.744 36.9823 158.512 36.3212C159.281 35.6601 160.086 35.0541 160.928 34.5031C161.77 33.9522 162.502 33.64 163.124 33.5665C163.271 33.5298 163.399 33.5114 163.509 33.5114C163.655 33.5114 163.765 33.5114 163.838 33.5114C164.643 33.5114 165.046 33.8053 165.046 34.3929C165.046 34.8337 164.808 35.4213 164.332 36.1559C164.076 36.5599 163.673 37.2394 163.124 38.1944C162.612 39.1126 162.081 40.1227 161.532 41.2245C161.02 42.2897 160.562 43.2997 160.159 44.2547C159.793 45.1729 159.61 45.8524 159.61 46.2931C159.61 46.8073 159.867 47.0644 160.379 47.0644C161.001 47.0644 161.678 46.7523 162.411 46.1279C163.179 45.5035 164.003 44.7138 164.881 43.7588C165.76 42.7672 166.638 41.7204 167.517 40.6185C167.59 40.692 167.626 40.8205 167.626 41.0042C167.626 41.2613 167.535 41.5184 167.352 41.7755C167.205 41.9958 167.059 42.1979 166.913 42.3815C166.547 42.859 166.052 43.465 165.43 44.1996C164.845 44.8974 164.241 45.5953 163.618 46.2931C162.996 46.9543 162.429 47.4868 161.916 47.8909C161.55 48.148 161.075 48.4234 160.489 48.7173C159.903 49.0111 159.318 49.158 158.732 49.158C158.073 49.158 157.616 48.9927 157.359 48.6622C157.103 48.2949 156.975 47.8541 156.975 47.3399C156.975 46.7523 157.085 46.1279 157.304 45.4667C157.524 44.8056 157.762 44.1812 158.018 43.5936C158.311 42.9692 158.531 42.51 158.677 42.2162C159.336 40.9307 159.94 39.7186 160.489 38.58C161.038 37.4414 161.422 36.6334 161.642 36.1559C161.752 35.9356 161.807 35.7519 161.807 35.605C161.807 35.3479 161.605 35.3295 161.203 35.5499C160.8 35.7703 160.306 36.1008 159.72 36.5416C159.171 36.9823 158.659 37.4231 158.183 37.8638C157.707 38.2678 157.396 38.5433 157.25 38.6902C155.895 40.1227 154.706 41.7204 153.681 43.4834C152.693 45.2096 151.851 46.991 151.155 48.8274C150.679 48.8642 150.204 48.9927 149.728 49.2131C149.252 49.4335 148.923 49.5437 148.74 49.5437Z" fill="#0C445E"/>
<path d="M173.999 48.8825C173.633 48.8825 173.322 48.8091 173.066 48.6622C172.81 48.5152 172.682 48.2398 172.682 47.8358C172.682 47.3216 172.81 46.7339 173.066 46.0728C173.322 45.4116 173.615 44.7689 173.945 44.1445C174.274 43.4834 174.567 42.9508 174.823 42.5468C173.542 43.9058 172.206 45.1913 170.815 46.4033C170.12 46.991 169.351 47.5419 168.509 48.0561C167.667 48.5703 166.77 48.8274 165.819 48.8274C165.453 48.8274 165.197 48.7173 165.05 48.4969C164.904 48.2398 164.831 47.9459 164.831 47.6154C164.831 47.4317 164.849 47.3032 164.885 47.2297C165.068 45.7973 165.526 44.3098 166.258 42.7672C166.99 41.2245 167.887 39.7737 168.948 38.4148C170.01 37.0558 171.09 35.9539 172.188 35.1091C173.029 34.4848 173.835 34.0991 174.603 33.9522C175.372 33.7685 176.214 33.6767 177.129 33.6767H178.941C179.526 32.685 180.13 31.5832 180.753 30.3711C181.411 29.1223 182.052 27.8919 182.674 26.6798C183.333 25.4678 183.937 24.4026 184.486 23.4844C185.987 20.9134 187.634 18.8566 189.427 17.3139C191.257 15.7713 193.289 15 195.522 15C195.997 15 196.437 15.1469 196.839 15.4407C197.242 15.6979 197.425 16.1019 197.388 16.6528L197.278 18.6362C197.278 18.6729 197.242 18.728 197.169 18.8015C197.095 18.8382 197.041 18.8565 197.004 18.8565C196.967 18.8565 196.912 18.8198 196.839 18.7464C196.729 18.0852 196.4 17.5894 195.851 17.2588C195.302 16.8915 194.625 16.7079 193.82 16.7079C193.563 16.7079 193.271 16.7263 192.941 16.763C192.648 16.7997 192.355 16.8732 192.063 16.9834C191.038 17.3507 190.068 18.1036 189.153 19.2422C188.238 20.3441 187.249 21.8132 186.188 23.6497C185.822 24.3475 185.346 25.2658 184.761 26.4044C184.175 27.5062 183.553 28.6999 182.894 29.9854C182.272 31.271 181.668 32.5198 181.082 33.7318C180.533 34.9439 180.057 35.9723 179.654 36.817C179.471 37.2578 179.16 37.9373 178.721 38.8555C178.282 39.737 177.806 40.7103 177.294 41.7755C176.818 42.8039 176.397 43.7588 176.031 44.6403C175.701 45.5218 175.537 46.1462 175.537 46.5135C175.537 47.0277 175.756 47.2848 176.196 47.2848C176.635 47.2848 177.22 47.0277 177.952 46.5135C178.685 45.9626 179.435 45.3015 180.204 44.5301C181.009 43.7221 181.723 42.9508 182.345 42.2162C183.004 41.4816 183.461 40.9307 183.717 40.5634C183.827 40.6736 183.882 40.8021 183.882 40.9491C183.882 41.2062 183.772 41.4633 183.553 41.7204C183.37 41.9775 183.205 42.1979 183.058 42.3815C182.4 43.263 181.576 44.218 180.588 45.2464C179.636 46.238 178.593 47.1012 177.458 47.8358C176.324 48.5336 175.171 48.8825 173.999 48.8825ZM168.07 46.9543C168.509 46.9543 169.113 46.6421 169.882 46.0177C170.687 45.3566 171.547 44.5485 172.462 43.5936C173.377 42.6019 174.237 41.5735 175.043 40.5083C175.848 39.4064 176.507 38.4148 177.019 37.5333C177.568 36.615 177.843 35.9172 177.843 35.4397C177.843 35.0357 177.715 34.7602 177.458 34.6133C177.239 34.4664 176.946 34.3929 176.58 34.3929C175.994 34.3929 175.354 34.6133 174.658 35.0541C173.999 35.4581 173.469 35.8621 173.066 36.2661C172.627 36.6701 172.096 37.3129 171.474 38.1944C170.888 39.0392 170.303 39.9757 169.717 41.0042C169.131 42.0326 168.637 43.0243 168.235 43.9792C167.832 44.9342 167.631 45.7055 167.631 46.2931C167.631 46.7339 167.777 46.9543 168.07 46.9543Z" fill="#0C445E"/>
<path d="M196.013 51.4168C195.72 51.4168 195.482 51.3617 195.299 51.2516C195.116 51.1781 195.043 50.9945 195.079 50.7006C195.079 50.5904 195.134 50.4252 195.244 50.2048C195.354 49.9844 195.427 49.8191 195.464 49.7089C195.647 49.1947 195.811 48.6805 195.958 48.1663C196.104 47.6154 196.251 47.1012 196.397 46.6237C196.909 44.6036 197.385 42.6019 197.825 40.6185C198.264 38.5984 198.611 36.5783 198.868 34.5582C199.014 33.3829 199.197 31.8035 199.417 29.8202C199.636 27.8001 199.746 25.8534 199.746 23.9802C199.746 23.2457 199.728 22.5662 199.691 21.9418C199.655 21.2807 199.563 20.693 199.417 20.1788C198.209 20.1788 197.001 20.1788 195.793 20.1788C194.585 20.1421 193.396 20.1237 192.224 20.1237C191.675 20.1237 190.907 20.1604 189.918 20.2339C188.967 20.3073 187.979 20.4726 186.954 20.7297C185.965 20.9868 185.142 21.4092 184.483 21.9969C183.824 22.5845 183.531 23.3742 183.605 24.3659C183.641 24.6597 183.751 25.0638 183.934 25.578C184.117 26.0554 184.245 26.3493 184.318 26.4595L183.714 26.9002C183.495 26.4962 183.22 26.0371 182.891 25.5229C182.561 24.9719 182.269 24.4394 182.012 23.9252C181.756 23.411 181.61 23.0253 181.573 22.7682C181.536 22.4009 181.555 21.9234 181.628 21.3358C181.701 20.7481 181.994 20.2339 182.506 19.7931C183.055 19.3157 183.806 19.0035 184.757 18.8565C185.746 18.7096 186.752 18.6362 187.777 18.6362C188.765 18.6362 189.717 18.6729 190.632 18.7464C191.547 18.8198 192.298 18.8565 192.883 18.8565C192.883 18.8565 193.304 18.8565 194.146 18.8565C194.988 18.8565 196.049 18.8565 197.33 18.8565C198.648 18.8198 200.039 18.8015 201.503 18.8015C202.967 18.8015 204.303 18.8015 205.511 18.8015L204.358 20.2339H200.515C201.064 21.2623 201.412 22.6947 201.558 24.5312C201.741 26.3676 201.832 28.1306 201.832 29.8202C201.832 30.518 201.832 31.1791 201.832 31.8035C201.832 32.4279 201.814 32.9789 201.778 33.4563C201.704 35.1826 201.466 37.2578 201.064 39.6819C200.661 42.106 200.149 44.4016 199.527 46.5686C201.027 44.4383 202.857 41.904 205.017 38.9657C207.213 36.0274 209.72 32.9789 212.539 29.8202C215.394 26.6247 218.541 23.5946 221.982 20.7297C222.677 20.1421 223.593 19.4809 224.727 18.7464C225.862 18.0118 227.07 17.3874 228.351 16.8732C229.632 16.3222 230.84 16.0468 231.974 16.0468C233.036 16.0468 233.768 16.2304 234.171 16.5977C234.61 16.965 234.829 17.4425 234.829 18.0301C234.829 18.728 234.61 19.4993 234.171 20.3441C233.768 21.1888 233.457 21.8867 233.237 22.4376C233.201 22.5478 233.036 22.6213 232.743 22.658C232.45 22.6947 232.322 22.6396 232.359 22.4927C232.432 22.1989 232.505 21.85 232.578 21.4459C232.688 21.0052 232.743 20.5644 232.743 20.1237C232.743 19.536 232.633 19.0035 232.414 18.526C232.194 18.0485 231.773 17.773 231.151 17.6996C231.041 17.6629 230.931 17.6445 230.822 17.6445C230.712 17.6445 230.602 17.6445 230.492 17.6445C229.431 17.6445 228.278 18.0118 227.033 18.7464C225.825 19.4442 224.416 20.4359 222.806 21.7214C219.731 24.1823 216.803 26.9002 214.021 29.8753C211.276 32.8136 208.641 35.8988 206.115 39.131C204.797 40.7838 203.516 42.455 202.272 44.1445C201.027 45.834 199.874 47.597 198.813 49.4335C198.74 49.5804 198.666 49.7457 198.593 49.9293C198.557 50.1497 198.502 50.315 198.428 50.4252C198.355 50.4986 198.136 50.6088 197.77 50.7557C197.404 50.9394 197.038 51.0863 196.672 51.1965C196.342 51.3434 196.123 51.4168 196.013 51.4168Z" fill="#0C445E"/>
<path d="M213.092 48.8274C212.507 48.8274 211.976 48.7173 211.5 48.4969C211.061 48.2398 210.841 47.7072 210.841 46.8992C210.841 45.6137 211.171 44.3281 211.83 43.0426C212.488 41.7204 213.166 40.5634 213.861 39.5717C214.483 38.727 215.179 37.9373 215.947 37.2027C216.753 36.4314 217.613 35.7703 218.528 35.2193C219.113 34.852 219.9 34.4664 220.889 34.0624C221.914 33.6216 222.774 33.4012 223.469 33.4012C224.055 33.4012 224.567 33.5665 225.006 33.8971C225.446 34.1909 225.665 34.7419 225.665 35.5499C225.665 36.7987 225.336 38.0842 224.677 39.4064C224.055 40.692 223.396 41.8306 222.701 42.8222C222.371 43.263 222.042 43.6854 221.712 44.0894C221.383 44.4567 221.017 44.8423 220.614 45.2464C221.968 45.2464 223.213 44.8607 224.348 44.0894C225.482 43.2814 226.471 42.308 227.312 41.1694L227.422 41.0593C227.532 41.0593 227.587 41.1694 227.587 41.3898C227.587 41.6469 227.514 41.8857 227.367 42.106C226.635 43.1344 225.72 44.0527 224.622 44.8607C223.524 45.632 222.28 46.0177 220.889 46.0177C220.742 46.0177 220.596 46.0177 220.449 46.0177C220.303 46.0177 220.157 45.9993 220.01 45.9626C217.961 47.8725 215.655 48.8274 213.092 48.8274ZM214.52 47.8909C215.032 47.8909 215.581 47.7072 216.167 47.3399C216.789 46.9726 217.265 46.6237 217.594 46.2931C218.217 45.6687 218.784 45.0076 219.297 44.3098C219.809 43.5752 220.285 42.8406 220.724 42.106C221.236 41.2245 221.749 40.1778 222.261 38.9657C222.774 37.7536 223.03 36.615 223.03 35.5499C223.03 34.7051 222.737 34.2827 222.151 34.2827C221.676 34.2827 221.09 34.4848 220.395 34.8888C219.736 35.2928 219.242 35.6601 218.912 35.9906C217.668 37.2762 216.625 38.6719 215.783 40.1778C215.307 41.0225 214.794 42.0142 214.245 43.1528C213.696 44.2914 213.422 45.3382 213.422 46.2931C213.422 46.4401 213.422 46.587 213.422 46.7339C213.458 46.8441 213.495 46.9726 213.532 47.1195C213.678 47.6338 214.007 47.8909 214.52 47.8909Z" fill="#0C445E"/>
<path d="M221.089 68C219.698 68 218.362 67.6694 217.081 67.0083C215.763 66.3839 214.793 65.4106 214.171 64.0884C213.952 63.6109 213.805 63.0967 213.732 62.5457C213.659 62.0315 213.622 61.5173 213.622 61.0031V60.3971C213.622 60.1033 213.659 59.8278 213.732 59.5707C213.805 59.3503 213.988 59.2401 214.281 59.2401C214.354 59.2401 214.391 59.2769 214.391 59.3503C214.391 59.5707 214.372 59.7911 214.336 60.0114C214.299 60.2318 214.281 60.4706 214.281 60.7277C214.281 62.4172 214.83 63.7027 215.928 64.5842C216.99 65.4657 218.326 65.9064 219.936 65.9064C220.595 65.9064 221.272 65.833 221.967 65.6861C222.663 65.5392 223.322 65.3371 223.944 65.08C226.25 64.0884 228.245 62.6743 229.928 60.8378C231.649 59.0381 233.149 56.9997 234.431 54.7225C235.712 52.4453 236.865 50.1313 237.889 47.7807C238.475 46.385 238.988 45.026 239.427 43.7037C239.903 42.3815 240.324 41.1878 240.69 40.1227C240.324 40.6369 239.848 41.2613 239.262 41.9958C238.676 42.7304 238.091 43.4466 237.505 44.1445C236.919 44.8056 236.407 45.3382 235.968 45.7422C235.053 46.6237 234.065 47.3766 233.003 48.001C231.978 48.5887 230.917 48.8825 229.819 48.8825C229.453 48.8825 229.142 48.8091 228.885 48.6622C228.629 48.5152 228.501 48.2398 228.501 47.8358C228.501 47.3216 228.629 46.7155 228.885 46.0177C229.178 45.3198 229.489 44.622 229.819 43.9241C230.148 43.2263 230.423 42.657 230.642 42.2162C231.081 41.3714 231.502 40.5267 231.905 39.6819C232.308 38.8371 232.655 38.1209 232.948 37.5333C233.241 36.9823 233.387 36.615 233.387 36.4314C233.387 36.1376 233.168 36.1376 232.729 36.4314C232.326 36.7252 231.942 37.0191 231.576 37.3129C230.77 38.0842 229.928 39.0024 229.05 40.0676C228.172 41.096 227.494 41.9224 227.019 42.5468C226.909 42.6937 226.817 42.7672 226.744 42.7672C226.671 42.7672 226.634 42.6753 226.634 42.4917C226.634 42.1979 226.726 41.9224 226.909 41.6653C227.421 40.9307 228.025 40.1227 228.721 39.2412C229.416 38.3597 230.13 37.5149 230.862 36.7069C231.557 35.9723 232.271 35.2561 233.003 34.5582C233.735 33.8604 234.668 33.5114 235.803 33.5114C236.572 33.5114 236.956 33.8053 236.956 34.3929C236.956 34.9071 236.736 35.4948 236.297 36.1559C236.041 36.5599 235.638 37.2394 235.089 38.1944C234.54 39.1493 233.973 40.1961 233.387 41.3347C232.838 42.4366 232.363 43.465 231.96 44.42C231.557 45.3749 231.356 46.0728 231.356 46.5135C231.356 47.0277 231.612 47.2848 232.125 47.2848C232.527 47.2848 233.021 47.0828 233.607 46.6788C234.193 46.238 234.797 45.7238 235.419 45.1362C236.48 44.1078 237.45 42.9692 238.329 41.7204C239.244 40.4716 240.031 39.2779 240.69 38.1393C240.799 37.9556 240.982 37.6251 241.239 37.1476C241.531 36.6701 241.824 36.211 242.117 35.7703C242.446 35.3295 242.703 35.0724 242.886 34.999C243.069 34.9255 243.435 34.7235 243.984 34.3929C244.533 34.0624 245.082 33.842 245.631 33.7318C246.143 33.6216 246.528 33.5665 246.784 33.5665C247.186 33.5665 247.388 33.6767 247.388 33.8971C247.388 34.1909 247.223 34.3378 246.894 34.3378C246.491 34.3378 246.125 34.448 245.796 34.6684C245.466 34.852 245.21 35.0908 245.027 35.3846C244.697 35.8621 244.222 36.7252 243.599 37.974C243.014 39.2228 242.355 40.6736 241.623 42.3264C240.927 43.9425 240.232 45.5953 239.537 47.2848C238.841 48.9376 238.201 50.4619 237.615 51.8576C236.736 53.9511 235.73 55.9896 234.595 57.973C233.461 59.9931 232.125 61.7928 230.587 63.3721C229.087 64.9882 227.293 66.2554 225.207 67.1736C223.962 67.7245 222.59 68 221.089 68Z" fill="#0C445E"/>
<path d="M253.084 48.8825C252.718 48.8825 252.407 48.8091 252.151 48.6622C251.894 48.5152 251.766 48.2398 251.766 47.8358C251.766 47.3216 251.894 46.7339 252.151 46.0728C252.407 45.4116 252.7 44.7689 253.029 44.1445C253.359 43.4834 253.651 42.9508 253.908 42.5468C252.626 43.9058 251.29 45.1913 249.9 46.4033C249.204 46.991 248.436 47.5419 247.594 48.0561C246.752 48.5703 245.855 48.8274 244.903 48.8274C244.537 48.8274 244.281 48.7173 244.135 48.4969C243.988 48.2398 243.915 47.9459 243.915 47.6154C243.915 47.4317 243.933 47.3032 243.97 47.2297C244.153 45.7973 244.611 44.3098 245.343 42.7672C246.075 41.2245 246.971 39.7737 248.033 38.4148C249.094 37.0558 250.174 35.9539 251.272 35.1091C252.517 34.1542 253.889 33.6767 255.39 33.6767H261.704C261.887 33.6767 261.978 33.7502 261.978 33.8971C261.978 34.1909 261.814 34.3378 261.484 34.3378C261.118 34.3378 260.752 34.5766 260.386 35.0541C260.02 35.4948 259.746 35.8621 259.563 36.1559C259.306 36.5599 258.904 37.2394 258.355 38.1944C257.806 39.1493 257.238 40.1961 256.653 41.3347C256.104 42.4366 255.628 43.465 255.225 44.42C254.823 45.3749 254.621 46.0728 254.621 46.5135C254.621 47.0277 254.878 47.2848 255.39 47.2848C255.939 47.2848 256.561 47.0277 257.257 46.5135C257.952 45.9993 258.648 45.3749 259.343 44.6403C260.075 43.869 260.734 43.1161 261.32 42.3815C261.942 41.6102 262.436 41.0042 262.802 40.5634C263.022 40.7838 263.003 41.096 262.747 41.5C262.527 41.8673 262.326 42.1611 262.143 42.3815C261.411 43.3365 260.569 44.3281 259.618 45.3565C258.666 46.3482 257.623 47.193 256.488 47.8909C255.39 48.552 254.255 48.8825 253.084 48.8825ZM247.154 46.9543C247.594 46.9543 248.198 46.6421 248.966 46.0177C249.771 45.3566 250.632 44.5485 251.547 43.5936C252.462 42.6019 253.322 41.5735 254.127 40.5083C254.932 39.4064 255.591 38.4148 256.104 37.5333C256.653 36.615 256.927 35.9172 256.927 35.4397C256.927 35.0357 256.799 34.7602 256.543 34.6133C256.323 34.4664 256.03 34.3929 255.664 34.3929C255.079 34.3929 254.438 34.6133 253.743 35.0541C253.084 35.4581 252.553 35.8621 252.151 36.2661C251.711 36.6701 251.181 37.3129 250.558 38.1944C249.973 39.0392 249.387 39.9757 248.802 41.0042C248.216 42.0326 247.722 43.0243 247.319 43.9792C246.917 44.9342 246.715 45.7055 246.715 46.2931C246.715 46.7339 246.862 46.9543 247.154 46.9543Z" fill="#0C445E"/>
<path d="M251.928 68C250.537 68 249.201 67.6694 247.92 67.0083C246.602 66.3839 245.632 65.4106 245.01 64.0884C244.754 63.6109 244.589 63.0967 244.516 62.5457C244.443 62.0315 244.406 61.5173 244.406 61.0031V60.4522C244.406 60.1584 244.443 59.8829 244.516 59.6258C244.589 59.3687 244.791 59.2401 245.12 59.2401C245.193 59.2401 245.23 59.2769 245.23 59.3503C245.23 59.5707 245.212 59.7911 245.175 60.0114C245.138 60.2318 245.12 60.4706 245.12 60.7277C245.12 62.4172 245.669 63.7027 246.767 64.5842C247.829 65.4657 249.165 65.9064 250.775 65.9064C251.434 65.9064 252.111 65.833 252.806 65.6861C253.502 65.5392 254.142 65.3371 254.728 65.08C257.071 64.0884 259.102 62.6559 260.822 60.7827C262.579 58.9096 264.098 56.7976 265.379 54.447C266.697 52.0963 267.85 49.6906 268.838 47.2297C269.863 44.7322 270.815 42.3815 271.693 40.1778C270.925 41.4265 270.083 42.5468 269.168 43.5385C268.253 44.4934 267.228 45.4484 266.093 46.4033C265.398 46.991 264.629 47.5419 263.787 48.0561C262.982 48.5703 262.103 48.8274 261.152 48.8274C260.786 48.8274 260.53 48.7173 260.383 48.4969C260.237 48.2398 260.164 47.9459 260.164 47.6154V47.2297C260.347 45.7973 260.804 44.3098 261.536 42.7672C262.305 41.2245 263.22 39.7737 264.281 38.4148C265.343 37.0558 266.423 35.9539 267.521 35.1091C268.765 34.1542 270.138 33.6767 271.638 33.6767H277.952C278.135 33.6767 278.227 33.7502 278.227 33.8971C278.227 34.1909 278.062 34.3378 277.733 34.3378C277.33 34.3378 276.946 34.5031 276.58 34.8337C276.214 35.1642 275.939 35.4764 275.756 35.7703C275.39 36.3579 274.914 37.2578 274.329 38.4699C273.743 39.6819 273.102 41.0776 272.407 42.657C271.712 44.1996 271.016 45.7789 270.321 47.395C269.625 48.9744 268.985 50.4619 268.399 51.8576C267.521 53.9511 266.514 55.9896 265.379 57.973C264.281 59.9931 262.964 61.7928 261.426 63.3721C259.926 64.9882 258.132 66.2554 256.046 67.1736C254.801 67.7245 253.429 68 251.928 68ZM263.403 46.9543C263.842 46.9543 264.446 46.6421 265.215 46.0177C265.983 45.3566 266.825 44.5485 267.74 43.5936C268.655 42.6019 269.515 41.5735 270.321 40.5083C271.126 39.4064 271.785 38.4148 272.297 37.5333C272.846 36.615 273.121 35.9172 273.121 35.4397C273.121 35.0357 272.993 34.7602 272.736 34.6133C272.517 34.4664 272.224 34.3929 271.858 34.3929C271.272 34.3929 270.65 34.6133 269.991 35.0541C269.332 35.4581 268.802 35.8621 268.399 36.2661C267.96 36.6701 267.429 37.3129 266.807 38.1944C266.221 39.0392 265.617 39.9757 264.995 41.0042C264.409 42.0326 263.915 43.0243 263.513 43.9792C263.11 44.9342 262.909 45.7055 262.909 46.2931C262.909 46.7339 263.073 46.9543 263.403 46.9543Z" fill="#0C445E"/>
<path d="M279.415 49.158C277.915 49.158 276.872 48.8642 276.286 48.2765C275.7 47.6888 275.407 46.9726 275.407 46.1279C275.407 45.0627 275.682 43.9241 276.231 42.7121C276.817 41.5 277.366 40.4716 277.878 39.6268C278.464 38.7453 279.251 37.8271 280.239 36.8721C281.227 35.9172 282.307 35.1091 283.478 34.448C284.649 33.7869 285.784 33.4563 286.882 33.4563C287.834 33.4563 288.493 33.6951 288.859 34.1726C289.225 34.6133 289.408 35.1459 289.408 35.7703C289.408 36.9089 289.06 37.8455 288.365 38.58C287.706 39.3146 286.882 39.9207 285.894 40.3981C284.906 40.8389 283.954 41.2062 283.039 41.5C282.49 41.6469 281.849 41.7938 281.117 41.9407C280.385 42.0877 279.69 42.1611 279.031 42.1611C278.775 42.8222 278.574 43.465 278.427 44.0894C278.281 44.7138 278.207 45.2831 278.207 45.7973C278.207 46.4217 278.354 46.9359 278.647 47.3399C278.976 47.7439 279.507 47.9459 280.239 47.9459C280.532 47.9459 280.879 47.9092 281.282 47.8358C281.685 47.7623 282.124 47.6521 282.6 47.5052C283.698 47.1379 284.778 46.5502 285.839 45.7422C286.901 44.9342 287.87 44.071 288.749 43.1528C289.664 42.1979 290.359 41.4082 290.835 40.7838C290.945 40.894 291 41.0225 291 41.1694C291 41.3531 290.872 41.6469 290.616 42.0509C289.884 43.0793 288.932 44.1445 287.761 45.2464C286.589 46.3482 285.29 47.2848 283.863 48.0561C282.435 48.7907 280.953 49.158 279.415 49.158ZM279.47 41.0593C279.946 41.096 280.477 41.096 281.062 41.0593C281.685 40.9858 282.289 40.8572 282.874 40.6736C284.375 40.2328 285.455 39.535 286.114 38.58C286.809 37.5884 287.157 36.7069 287.157 35.9356C287.157 35.4948 287.065 35.1275 286.882 34.8337C286.699 34.5398 286.406 34.3929 286.004 34.3929C284.942 34.3929 283.991 34.797 283.149 35.605C282.307 36.3763 281.575 37.2762 280.953 38.3046C280.33 39.333 279.836 40.2512 279.47 41.0593Z" fill="#0C445E"/>
<defs>
<filter id="filter0_d_66_1219" x="5.79382" y="19.7318" width="53.2534" height="24.3259" filterUnits="userSpaceOnUse" color-interpolation-filters="sRGB">
<feFlood flood-opacity="0" result="BackgroundImageFix"/>
<feColorMatrix in="SourceAlpha" type="matrix" values="0 0 0 0 0 0 0 0 0 0 0 0 0 0 0 0 0 0 127 0" result="hardAlpha"/>
<feOffset dx="2" dy="4"/>
<feGaussianBlur stdDeviation="2"/>
<feComposite in2="hardAlpha" operator="out"/>
<feColorMatrix type="matrix" values="0 0 0 0 0 0 0 0 0 0 0 0 0 0 0 0 0 0 0.25 0"/>
<feBlend mode="normal" in2="BackgroundImageFix" result="effect1_dropShadow_66_1219"/>
<feBlend mode="normal" in="SourceGraphic" in2="effect1_dropShadow_66_1219" result="shape"/>
</filter>
<linearGradient id="paint0_linear_66_1219" x1="47.3196" y1="60.4022" x2="18.5565" y2="2.3226" gradientUnits="userSpaceOnUse">
<stop stop-color="#7BCEF3"/>
<stop offset="1" stop-color="#B5E8FF"/>
</linearGradient>
<linearGradient id="paint1_linear_66_1219" x1="47.3196" y1="60.4022" x2="18.5565" y2="2.3226" gradientUnits="userSpaceOnUse">
<stop stop-color="#7BCEF3"/>
<stop offset="1" stop-color="#B5E8FF"/>
</linearGradient>
<linearGradient id="paint2_linear_66_1219" x1="47.3196" y1="60.4022" x2="18.5565" y2="2.3226" gradientUnits="userSpaceOnUse">
<stop stop-color="#7BCEF3"/>
<stop offset="1" stop-color="#B5E8FF"/>
</linearGradient>
</defs>
</svg>
